<svg fill="none" width="18" height="18" viewBox="0 0 20 20" xmlns="http://www.w3.org/2000/svg"><g fill="#000"><path d="m20.078 9.5434s-3.3898 5.8333-9.8305 5.8333c-6.4406 0-10.169-5.8333-10.169-5.8333v-0.3775s5.0728 4.1275 10.169 4.1275c5.1859 0 9.8305-4.1284 9.8305-4.1284v0.37833z"></path><path d="m19.831 7.2525c0-0.1075-0.0445-0.20667-0.1294-0.27167-0.6759-0.51916-3.9885-2.8142-9.7011-2.8142-5.705 0-9.1495 2.2892-9.8619 2.8117-0.090166 0.06584-0.13833 0.17-0.13833 0.2825 0 0.28917 0.31592 0.47584 0.57217 0.34084 1.4365-0.75334 5.3712-2.6017 9.428-2.6017 4.0999 0 7.8614 1.8233 9.2571 2.5867 0.2534 0.13833 0.5734-0.04584 0.5734-0.33417z"></path></g><g stroke="var(--ispui-input__button-icon-color)" stroke-linecap="round"><path d="m2.4461 12.244-1.2044 1.8067"></path><path d="m5.1342 13.838-0.63125 2.525"></path><path d="m9.4141 14.583v3.3333"></path><path d="m13.669 14.47 0.6313 2.525"></path><path d="m17.217 12.074 1.6951 1.975"></path></g></svg>