<svg fill="#000" width="18" height="18" viewBox="0 0 20 20" xmlns="http://www.w3.org/2000/svg"><path fill-rule="evenodd" clip-rule="evenodd" d="M10.1698 16.6665C16.6101 16.6665 20 11.2498 20 11.2498C20 11.2498 16.2703 5.83313 10.1698 5.83313C4.06759 5.83313 0 11.2498 0 11.2498C0 11.2498 3.72962 16.6665 10.1698 16.6665ZM10 15.8331C12.641 15.8331 14.7826 13.7807 14.7826 11.2498C14.7826 8.71887 12.641 6.66646 10 6.66646C7.35903 6.66646 5.21739 8.71887 5.21739 11.2498C5.21739 13.7807 7.35903 15.8331 10 15.8331Z"></path><path d="M10 14.1665C11.6809 14.1665 13.0435 12.8606 13.0435 11.2498C13.0435 9.63897 11.6809 8.33313 10 8.33313C8.31915 8.33313 6.95654 9.63897 6.95654 11.2498C6.95654 12.8606 8.31915 14.1665 10 14.1665Z"></path><path d="M19.8652 6.41237C19.8652 6.30928 19.8216 6.21293 19.7376 6.14852C19.065 5.63272 15.7458 3.33337 10.0177 3.33337C4.29783 3.33337 0.846383 5.62594 0.136739 6.14622C0.0472609 6.21182 0 6.31256 0 6.42052C0 6.70969 0.332904 6.89407 0.597844 6.75569C2.05675 5.99373 5.97663 4.16648 10.0177 4.16648C14.1006 4.16648 17.8485 5.96818 19.266 6.7395C19.5277 6.88187 19.8652 6.7007 19.8652 6.41237Z"></path></svg>