<?xml version="1.0" encoding="UTF-8" standalone="no"?>

<svg
   xmlns="http://www.w3.org/2000/svg"
   version="1.1"
   width="333"
   height="340"
   style="display:inline;enable-background:new">
  <g
     transform="translate(93.65625,-248.00525)"
     id="layer8"
     style="display:inline">
    <path
       d="m 94.039072,417.76951 c -10e-7,5.95113 -2.449861,11.8656 -6.657943,16.07368 -4.208082,4.20808 -10.122562,6.65794 -16.073687,6.65794 -5.951125,0 -11.865605,-2.44986 -16.073687,-6.65794 -4.208082,-4.20808 -6.657942,-10.12255 -6.657943,-16.07368 -10e-7,-5.95113 2.449857,-11.86561 6.657939,-16.07369 4.208083,-4.20808 10.122564,-6.65794 16.073691,-6.65794 5.951127,0 11.865608,2.44986 16.073691,6.65794 4.208082,4.20808 6.65794,10.12256 6.657939,16.07369"
       id="path5491"
       style="fill:#2196F3;fill-opacity:1;stroke:#000000;stroke-width:1px;stroke-linecap:butt;stroke-linejoin:miter;stroke-opacity:1;display:inline;enable-background:new" />
    <path
       d="m 71.306312,361.25031 0,22.875 c 9.29021,0 17.68974,3.78349 23.78125,9.875 l 16.187498,-16.1875 c -10.23093,-10.23093 -24.361208,-16.5625 -39.968748,-16.5625 z m -23.78125,80.3125 -16.1875,16.1875 c 10.23093,10.22311 24.36121,16.53125 39.96875,16.53125 l 0,-22.875 c -9.29021,0 -17.68974,-3.76005 -23.78125,-9.84375 z m 72.718748,-52.0625 -19.8125,11.46875 c 4.29386,8.60672 5.63757,16.92719 3.375,25.53125 l 22.09375,5.90625 c 3.78803,-14.42671 1.02191,-31.11717 -5.65625,-42.90625 z M 16.712562,403.15656 c -3.78937,14.41943 -1.01789,31.08772 5.65625,42.875 l 19.8125,-11.4375 c -4.29581,-8.60536 -5.63611,-16.92878 -3.375,-25.53125 z m 39.96875,-39.96875 c -14.61739,3.90812 -26.89943,13.51762 -34.3125,26.3125 l 19.8125,11.46875 c 4.41094,-7.6168 11.70841,-13.35686 20.40625,-15.6875 z m 43.749998,71.40625 c -4.415888,7.61833 -11.726778,13.33494 -20.437498,15.65625 l 5.9375,22.125 c 14.629828,-3.90479 26.899478,-13.54191 34.312498,-26.34375 z"
       id="path6486"
       style="fill:#2196F3;fill-opacity:1;stroke:none;display:inline;enable-background:new" />
    <path
       d="m -47.693688,385.87531 c -2.72285,10.17896 -4.1875,20.8688 -4.1875,31.90625 0,11.02694 1.46966,21.70475 4.1875,31.875 l -33.34375,8.9375 c 3.60626,13.47288 8.95271,26.23405 15.78125,38.03125 l 49.125,-28.34375 c -8.60109,-14.85768 -13.53125,-32.09679 -13.53125,-50.5 l 11.625,0 c 0,-7.99544 1.06192,-15.74964 3.03125,-23.125 z"
       id="rect6558"
       style="fill:#2196F3;fill-opacity:1;fill-rule:nonzero;stroke:none;display:inline;enable-background:new" />
    <path
       d="m 207.86881,338.90656 -59.1875,34.1875 c 11.37732,23.45762 15.06426,44.41275 8.9375,67.8125 l 11.21875,3 c 4.45096,-17.70825 4.31864,-35.76757 0,-52.25 l 21.46875,-5.78125 c 5.42163,21.61369 5.27085,43.66566 0,63.78125 l 33.34375,8.9375 c 10.43173,-40.30849 2.83941,-86.77612 -15.78125,-119.6875 z"
       id="rect6573"
       style="fill:#2196F3;fill-opacity:1;fill-rule:nonzero;stroke:none;display:inline;enable-background:new" />
    <path
       d="m 59.866242,397.9651 c 5.153827,-2.97556 11.500847,-3.81116 17.249193,-2.2709 5.748346,1.54027 10.827224,5.43743 13.802787,10.59126 2.975562,5.15383 3.811164,11.50084 2.2709,17.24919 -1.540264,5.74835 -5.437424,10.82723 -10.59125,13.80279 -5.153826,2.97556 -11.500844,3.81116 -17.249191,2.2709 -5.748346,-1.54026 -10.827225,-5.43742 -13.802789,-10.59125 -2.975565,-5.15383 -3.811169,-11.50085 -2.270905,-17.2492 1.540265,-5.74835 5.437427,-10.82723 10.591255,-13.80279"
       id="path6630"
       style="fill:#2196F3;fill-opacity:1;stroke:none;display:inline;enable-background:new" />
    <path
       d="m 103.11144,536.65638 c 10.17666,-2.73143 20.16666,-6.80792 29.72537,-12.32665 9.54961,-5.51347 18.06203,-12.12514 25.51081,-19.56398 l 24.41198,24.40778 c 9.86472,-9.85955 18.24299,-20.87029 25.0454,-32.68258 l -49.10891,-28.37163 c -8.56658,14.87761 -21.03101,27.7668 -36.96866,36.96841 l -5.8125,-10.06755 c -6.92425,3.99772 -14.17055,6.95517 -21.542458,8.93737 z"
       id="path6632"
       style="fill:#2196F3;fill-opacity:1;fill-rule:nonzero;stroke:none;display:inline;enable-background:new" />
    <path
       d="m -65.345948,338.81713 59.2009999,34.16413 C 8.4812819,351.3994 24.785492,337.72885 48.113652,331.33491 l -3.0113,-11.21572 c -17.56128,4.99948 -33.13495,14.14373 -45.24983012,26.125 L -15.888558,330.54233 c 16.00717988,-15.50211 35.18014,-26.39752 55.23618,-31.89063 l -8.93177,-33.34528 c -40.1240501,11.1201 -76.57003,40.92906 -95.7618,73.51071 z"
       id="path6634"
       style="fill:#2196F3;fill-opacity:1;fill-rule:nonzero;stroke:none;display:inline;enable-background:new" />
    <path
       d="m 158.19739,330.7913 c -7.45381,-7.44754 -15.97916,-14.06088 -25.53788,-19.57961 -9.54961,-5.51347 -19.53169,-9.57961 -29.6983,-12.31102 l 8.93177,-33.34528 c -13.470988,-3.61333 -27.195708,-5.36375 -40.826658,-5.34866 l -0.0161,56.71537 c 17.16768,-0.0199 34.562258,4.32999 50.499908,13.5316 l -5.8125,10.06754 c 6.92425,3.99772 13.10863,8.79447 18.51121,14.18764 z"
       id="path6654"
       style="fill:#2196F3;fill-opacity:1;fill-rule:nonzero;stroke:none;display:inline;enable-background:new" />
    <path
       d="m 71.092272,575.59929 -0.0135,-68.35163 c -26.00356,-1.87576 -45.9947,-9.16034 -63.1961001,-26.16614 l -8.20745002,8.21572 C 12.785532,502.00601 28.491522,510.92107 44.925042,515.42224 l -5.72766,21.48311 c -21.42882,-6.11158 -40.4510001,-17.26814 -55.23618,-31.89063 l -24.41198,24.40779 c 29.69231,29.18838 73.73062,45.84706 111.54304,46.17678 z"
       id="path6656"
       style="fill:#2196F3;fill-opacity:1;fill-rule:nonzero;stroke:none;display:inline;enable-background:new" />
    <path
       d="m 93.947362,417.89604 c -10e-7,5.95113 -2.449862,11.86561 -6.657946,16.07369 -4.208085,4.20808 -10.122567,6.65793 -16.073694,6.65793 -5.951124,0 -11.8656,-2.44986 -16.073681,-6.65794 -4.20808,-4.20808 -6.657938,-10.12256 -6.657939,-16.07368 -10e-7,-5.95113 2.449856,-11.8656 6.657936,-16.07369 4.20808,-4.20808 10.122559,-6.65794 16.073684,-6.65794 5.951129,0 11.865612,2.44985 16.073697,6.65794 4.208085,4.20808 6.657944,10.12256 6.657943,16.07369"
       id="path6658"
       style="fill:#2196F3;fill-opacity:1;stroke:none;display:inline;enable-background:new" />
  </g>
</svg>
