<?xml version="1.0" ?><!DOCTYPE svg  PUBLIC '-//W3C//DTD SVG 1.1//EN'  'http://www.w3.org/Graphics/SVG/1.1/DTD/svg11.dtd'><svg height="2048px" style="shape-rendering:geometricPrecision; text-rendering:geometricPrecision; image-rendering:optimizeQuality; fill-rule:evenodd; clip-rule:evenodd" viewBox="0 0 2048 2048" width="2048px" xml:space="preserve" xmlns="http://www.w3.org/2000/svg" xmlns:xlink="http://www.w3.org/1999/xlink"><defs><style type="text/css">
   <![CDATA[
    .fil4 {fill:none}
    .fil2 {fill:#B7B6AD}
    .fil1 {fill:#E75A4D}
    .fil0 {fill:#F7F5ED}
    .fil3 {fill:#B7B6AD;fill-rule:nonzero}
   ]]>
  </style></defs><g id="Layer_x0020_1"><g id="_316006816"><polygon class="fil0" id="_316007416" points="1027.01,1117.37 1647.03,1580.3 400.968,1580.3 1020.99,1117.37 1024,1119.6 "/><path class="fil0" d="M400.981 1588.85l623.685 -452.8 -3.38977 -2.42008 -0.366142 0.257481 -1.1941 -0.839764c-57.6685,-40.6146 -115.086,-81.8682 -172.367,-123.569 -0.00590552,-0.00354331 -0.0106299,-0.00708662 -0.0153543,-0.0106299 -149.032,-108.495 -297.142,-220.01 -446.366,-331.138l0 910.529 0.0129921 -0.00944883z" id="_316007536"/><g><path class="fil1" d="M1647.03 1580.3l43.767 0c55.6619,0 101.202,-45.5398 101.202,-101.202l0 -921.987c0,-55.6619 -45.541,-101.202 -101.202,-101.202l-43.767 0 0 1124.39z" id="_316007272"/><path class="fil1" d="M400.968 1588.86l-43.767 0c-55.6607,0 -101.202,-45.5398 -101.202,-101.202l0 -930.544c0,-55.6619 45.5398,-101.202 101.202,-101.202l43.767 0 0 1132.95z" id="_316007032"/><polygon class="fil0" id="_316007080" points="1027.01,918.843 1647.03,455.909 400.968,455.909 1020.99,918.843 1024,916.612 "/><path class="fil2" d="M1024.67 1136.05l622.366 444.252 0 -901.972c-102.961,76.676 -205.394,153.536 -307.964,229.462 -97.0902,71.869 -194.303,142.901 -292.207,212.145l-0.0283465 0.0200788 -22.1658 16.0925z" id="_316006984"/><polygon class="fil3" id="_316006120" points="1030.13,1136.63 403.311,1592.09 398.625,1585.62 1025.45,1130.16 "/><path class="fil1" d="M1024.67 1136.05c-236.293,-140.753 -537.739,-395.159 -768.667,-565.132l68.3245 -107.101 74.6469 -6.10394 1.99725 -1.80236 620.021 462.933 3.01063 -2.2311 3.01063 2.2311 620.021 -462.933 1.99725 1.80236 74.6469 6.10394 68.3245 107.101c-249.763,183.836 -510.465,396.571 -767.334,565.132z" id="_316006720"/></g></g></g><rect class="fil4" height="2048" width="2048"/></svg>