<?xml version="1.0" encoding="utf-8"?>
<!-- Generator: Adobe Illustrator 16.0.2, SVG Export Plug-In . SVG Version: 6.00 Build 0)  -->
<!DOCTYPE svg PUBLIC "-//W3C//DTD SVG 1.1//EN" "http://www.w3.org/Graphics/SVG/1.1/DTD/svg11.dtd">
<svg version="1.1" id="Слой_1" xmlns="http://www.w3.org/2000/svg" xmlns:xlink="http://www.w3.org/1999/xlink" x="0px" y="0px"
	 width="234.012px" height="32.96px" viewBox="7.994 4.143 234.012 32.96" enable-background="new 7.994 4.143 234.012 32.96"
	 xml:space="preserve">
<g>
	<g>
		<path d="M32.306,33.235c-0.908,2.441-1.724,3.867-4.531,3.867c-3.042,0-3.77-1.846-4.541-3.867l-8.12-21.499
			c-0.137-0.366-0.498-1.06-0.771-1.06c-0.499,0-0.499,0.829-0.499,0.966l0.137,25.089H7.994V8.377c0-4.189,4.214-4.234,5.122-4.234
			c3.677,0,4.717,1.891,5.581,4.142l8.208,21.499c0.273,0.688,0.591,1.196,0.869,1.196c0.269,0,0.586-0.508,0.854-1.196L36.84,8.285
			c1.363-3.638,3.315-4.142,5.581-4.142c2.949,0,5.128,1.289,5.128,4.234v28.354h-5.987l0.186-25.089
			c0-0.873-0.365-0.966-0.551-0.966c-0.318,0-0.635,0.693-0.768,1.06L32.306,33.235z"/>
		<path d="M52.994,37.103V4.881h5.986v32.222H52.994z"/>
		<path d="M64.43,10.354c0-1.332,0.044-2.939,1.313-4.184c1.133-1.108,2.627-1.289,3.809-1.289h15.063
			c2.222,0,4.941,0.137,6.802,2.944c1.499,2.212,1.587,4.741,1.587,7.09c0,2.348-0.376,4.092-1.313,5.467
			c-0.995,1.46-2.401,2.96-6.035,2.96h-5.581v0.23l13.564,13.53H86.11l-11.93-12.61c-0.634-0.643-1.498-1.795-1.498-2.713v-0.738
			c0-1.289,0.957-2.207,2.675-2.207h5.986c1.05,0,3.975-0.043,4.814-1.322c0.361-0.553,0.679-1.266,0.679-2.369
			c0-2.534-0.313-3.833-0.946-4.478c-0.953-0.967-2.594-0.957-3.546-0.957h-9.707c-0.634,0-1.088,0.049-1.592,0.508
			c-0.629,0.553-0.629,1.153-0.629,1.797v25.089H64.43V10.354z"/>
		<path d="M101.362,20.622c0-4.926,0.723-7.456,1.953-9.022c1.855-2.35,4.849-2.623,8.159-2.623c3.227,0,6.353,0.273,8.218,2.623
			c0.996,1.244,1.953,3.456,1.953,9.022c0,5.201-0.908,7.643-1.953,8.975c-1.914,2.438-4.951,2.672-8.218,2.672
			c-3.311,0-6.304-0.233-8.159-2.672C102.271,28.265,101.362,25.872,101.362,20.622z M111.523,4.143c-3.853,0-9.117,0-12.656,3.408
			c-3.452,3.312-3.677,8.696-3.677,13.071c0,3.638,0,9.482,3.677,13.072c3.49,3.408,8.892,3.408,12.656,3.408
			c3.677,0,9.214,0,12.651-3.408c3.271-3.223,3.633-8.838,3.633-13.072c0-4.232-0.313-9.853-3.633-13.071
			C120.688,4.143,115.288,4.143,111.523,4.143z"/>
	</g>
	<g>
		<path fill="#AC162C" d="M153.178,4.246c0,0,0,12.798,0,14.257c-1.445,0-17.128,0-18.582,0c0-1.459,0-14.257,0-14.257h-4.054
			v32.846h4.054c0,0,0-13.329,0-14.801c1.454,0,17.137,0,18.582,0c0,1.472,0,14.801,0,14.801h4.063V4.246h-0.83H153.178z"/>
		<path fill="#AC162C" d="M175.619,3.889c-2.92,0-8.369,0-11.992,3.629c-3.936,3.939-3.936,10.161-3.936,13.149
			c0,2.986,0,9.208,3.936,13.154c3.623,3.623,9.072,3.623,11.992,3.623s8.359,0,11.992-3.623c3.936-3.945,3.936-10.168,3.936-13.154
			c0-2.988,0-9.21-3.936-13.149C183.979,3.889,178.539,3.889,175.619,3.889z M184.848,30.95c-2.422,2.703-6.356,2.703-9.229,2.703
			s-6.807,0-9.238-2.709c-2.275-2.549-2.461-6.318-2.461-10.277c0-3.961,0.186-7.729,2.461-10.278
			c2.432-2.715,6.367-2.715,9.238-2.715s6.807,0,9.238,2.715c2.274,2.549,2.461,6.317,2.461,10.278
			C187.318,24.625,187.133,28.396,184.848,30.95z"/>
		<path fill="#AC162C" d="M241.176,4.246h-24.727h-0.82h-3.799h-12.021c-2.969,0-4.717,1.099-5.479,1.753
			c-2.119,1.772-2.393,4.149-2.393,6.021c0,1.533,0.186,3.782,1.768,5.581c0.879,1.025,2.373,1.934,4.189,2.553l12.432,4.277
			c3.105,1.079,3.359,2.606,3.359,4.346c0,4.527-1.982,4.527-2.822,4.527h-18.428v3.788h18.153c1.904,0,4.054-0.282,5.654-2.383
			c1.563-2.021,1.68-5.104,1.68-6.002c0-2.362-0.752-4.311-2.178-5.653c-1.183-1.134-2.892-1.802-4.834-2.494l-12.129-4.277
			c-2.433-0.875-2.607-2.218-2.607-4.171c0-0.938,0-2.354,0.724-3.145c0.508-0.547,1.602-0.932,2.637-0.932h12.295h4.619
			c3.418,0,7.607,0,8.447,0c0,1.558,0,29.057,0,29.057h4.053c0,0,0-27.5,0-29.057c1.445,0,13.057,0,13.057,0V4.246H241.176z"/>
	</g>
</g>
</svg>
