<?xml version="1.0" encoding="utf-8"?>
<!-- Generator: Adobe Illustrator 19.2.0, SVG Export Plug-In . SVG Version: 6.00 Build 0)  -->
<svg version="1.1" id="Layer_1" xmlns="http://www.w3.org/2000/svg" xmlns:xlink="http://www.w3.org/1999/xlink" x="0px" y="0px"
	 width="376px" height="295px" viewBox="0 0 376 295" style="enable-background:new 0 0 376 295;" xml:space="preserve">
<style type="text/css">
	.st0{fill:none;stroke:#272636;stroke-width:2;stroke-miterlimit:10;}
	.st1{fill:#C2C0AC;}
	.st2{fill:#FF9900;}
</style>
<g id="slice" transform="translate(215.000000, 119.000000)">
</g>
<path class="st0" d="M-341.6,33.6"/>
<path class="st1" d="M-326.8,37.8"/>
<title></title>
<desc></desc>
<g>
	<path class="st2" d="M-316.4,84.9c-21.8,0-39.5-17.8-39.5-39.5c0-21.8,17.8-39.5,39.5-39.5c21.8,0,39.5,17.8,39.5,39.5
		C-276.8,67.2-294.5,84.9-316.4,84.9z M-316.4,21c-13.5,0-24.5,11-24.5,24.5s11,24.5,24.5,24.5s24.5-11,24.5-24.5
		C-291.9,31.9-302.8,21-316.4,21z"/>
	<path class="st2" d="M-204.3,84.9c-21.8,0-39.5-17.8-39.5-39.5c0-21.8,17.8-39.5,39.5-39.5s39.5,17.8,39.5,39.5
		C-164.8,67.2-182.5,84.9-204.3,84.9z M-204.3,21c-13.5,0-24.5,11-24.5,24.5s11,24.5,24.5,24.5s24.5-11,24.5-24.5
		C-179.9,31.9-190.9,21-204.3,21z"/>
</g>
<path class="st2" d="M-165.3,17.2h-190c-3.5,0-6.5-2.4-7.3-5.8l-47.7-196.2h-46.8c-4.1,0-7.5-3.4-7.5-7.6c0-4.2,3.4-7.5,7.5-7.5
	h52.7c3.5,0,6.5,2.4,7.3,5.8l15,61.6H-107c2.6,0,4.9,1.3,6.3,3.4c1.4,2.1,1.6,4.8,0.6,7.1l-58.3,134.7
	C-159.6,15.4-162.3,17.2-165.3,17.2z"/>
<polygon class="st2" points="-349.4,2.1 -170.2,2.1 -118.5,-117.5 -378.5,-117.5 "/>
<g>
	<g>
		<path class="st2" d="M51.5,150.7c-10.9,5.7-10.5,14.1,1,18.7l34,13.4c11.5,4.5,28.8,2.1,38.6-5.6L272.6,60.9
			c9.7-7.6,10.7-6.5,2.3,2.5L158.2,188.3c-8.5,9-6,20,5.6,24.5l4,1.6c11.5,4.4,30.3,11.9,41.7,16.6l37.7,15.4
			c11.4,4.6,20.8,8.5,20.8,8.6c0,0.1,0.1,0.3,0.1,0.3c0.1,0,2.8-9.7,6-21.6l57.5-211.2c3.2-11.9-3.1-17-14-11.2L51.5,150.7z"/>
	</g>
	<g>
		<path class="st2" d="M144.7,288.9c-0.7,2,23.2-34.6,23.2-34.6c6.8-10.3,2.9-22.6-8.5-27.3l-26.1-10.7
			c-11.4-4.7-16.9,0.8-12.2,12.2C121.2,228.5,145.4,286.9,144.7,288.9z"/>
	</g>
</g>
</svg>
