<?xml version="1.0" encoding="utf-8"?>
<svg width="96" height="96" viewBox="0 0 96 96" fill="none" xmlns="http://www.w3.org/2000/svg">
    <path d="M8.34801 8.34962L8.34962 8.348C11.9558 4.73359 16.5481 2.88177 22.929 1.9446C29.3438 1.00245 37.4402 1 47.9913 1C58.5423 1 66.639 1.00243 73.0561 1.94248C79.4391 2.87751 84.0363 4.72514 87.6512 8.3314C91.2663 11.9465 93.1182 16.5437 94.0554 22.9268C94.9976 29.3438 95 37.4402 95 47.9913C95 58.5424 94.9976 66.6388 94.0554 73.0558C93.1182 79.4389 91.2663 84.0361 87.6512 87.6512C84.0362 91.2662 79.4348 93.1182 73.0493 94.0554C66.6301 94.9976 58.5337 95 47.9913 95C37.4489 95 29.3525 94.9976 22.9355 94.0554C16.5522 93.1182 11.9556 91.2663 8.34962 87.652L8.34881 87.6512C4.73384 84.0362 2.88183 79.4348 1.94461 73.0493C1.00244 66.6301 1 58.5337 1 47.9913C1 37.4489 1.00244 29.3525 1.94461 22.9355C2.88182 16.5522 4.73374 11.9556 8.34801 8.34962Z" stroke="black" stroke-width="2" />
    <path d="M45.931 78.848C42.4828 76.2187 39.9397 72.2963 39.1207 67.7273H28V19.667C33.9914 22.6411 38.2586 29.236 38.7759 36.0463L40.4569 49.5377L39.6379 49.4084C37.8276 49.4084 36.2759 51.0894 36.2759 52.7704C36.2759 54.3222 37.4828 55.6584 39.0345 56.0032L41.0603 56.4773C44.4224 50.1411 46.319 43.9342 46.319 37.8135C46.319 32.2963 45.5862 26.8222 45.5 21.2187C45.5 18.7187 46.4483 16.4342 48 14.667C49.5517 16.4773 50.5 18.7187 50.5 21.2187C50.5 26.8222 49.681 32.3394 49.681 37.8135C49.681 43.8911 51.5776 50.1411 54.9397 56.4773L56.9655 56.0032C58.5172 55.6584 59.7241 54.3222 59.7241 52.7704C59.7241 51.0894 58.1724 49.4084 56.3621 49.4084L55.5431 49.5377L57.2241 36.0463C58.0431 29.236 62.0086 22.6411 68 19.667V67.7273H56.8793C56.0603 72.2532 53.6465 76.348 50.069 78.848C49.25 79.4515 48.5172 80.1842 48.0431 81.1325C47.4828 80.1411 46.75 79.4515 45.931 78.848ZM33.2586 51.1325C33.7328 49.3222 35.069 47.7704 36.7069 46.8222L35.3707 35.7015C34.8966 32.2532 33.4741 29.1498 31.319 26.6066V51.0894H33.2586V51.1325ZM38.9052 64.3653C38.9052 62.6842 39.1638 61.1325 39.5086 59.5808L37.9569 59.236C35.6724 58.5032 33.9052 56.736 33.3017 54.4515H31.4052V64.3653H38.9052ZM46.2759 64.3653C46.2759 62.3394 44.7241 60.5291 42.6983 60.3135C42.3535 61.6066 42.0948 62.9429 42.0948 64.3653H46.2759ZM46.2759 67.7273H42.569C43.1724 70.3566 44.4655 72.7273 46.2759 74.7963V67.7273ZM51.5345 57.3394C50.1121 54.7101 48.7759 51.9515 47.9569 49.1066C47.1379 51.9946 45.8017 54.7101 44.3793 57.3394C45.8017 57.6842 47.0086 58.6325 47.9569 59.7101C48.9052 58.6325 50.1121 57.6842 51.5345 57.3394ZM53.819 64.3653C53.819 62.9429 53.5603 61.6066 53.2155 60.3135C51.1897 60.5722 49.6379 62.3394 49.6379 64.3653H53.819ZM53.3448 67.7273H49.6379V74.7963C51.4483 72.7273 52.7414 70.3566 53.3448 67.7273ZM64.5948 64.3653V54.4515H62.6983C62.0948 56.736 60.3276 58.5032 58.0431 59.236L56.4914 59.5808C56.8362 61.1325 57.0948 62.6842 57.0948 64.3653H64.5948ZM64.5948 51.1325V26.6498C62.4397 29.1498 60.8879 32.2532 60.5431 35.7446L59.2069 46.8653C60.8879 47.8135 62.181 49.3653 62.6552 51.1756H64.5948V51.1325Z" fill="black" />
</svg>